<mxfile host="app.diagrams.net" modified="2023-09-22T07:02:55.745Z" agent="Mozilla/5.0 (Windows NT 10.0; Win64; x64) AppleWebKit/537.36 (KHTML, like Gecko) Chrome/116.0.0.0 Safari/537.36" etag="QfOfNWzT2GTSchgtHd92" version="21.7.5" type="github">
  <diagram name="第 1 页" id="-euYrq6UXhqAbyDrJ8by">
    <mxGraphModel dx="1434" dy="758" grid="1" gridSize="10" guides="1" tooltips="1" connect="1" arrows="1" fold="1" page="1" pageScale="1" pageWidth="4681" pageHeight="3300" math="0" shadow="0">
      <root>
        <mxCell id="0" />
        <mxCell id="1" parent="0" />
        <mxCell id="s5ZnHEbZAF1jLoiQEf9y-1" value="GM-SLB" style="ellipse;shape=cloud;whiteSpace=wrap;html=1;" vertex="1" parent="1">
          <mxGeometry x="280" y="150" width="120" height="80" as="geometry" />
        </mxCell>
        <mxCell id="s5ZnHEbZAF1jLoiQEf9y-3" value="" style="shape=actor;whiteSpace=wrap;html=1;" vertex="1" parent="1">
          <mxGeometry x="90" y="175" width="40" height="50" as="geometry" />
        </mxCell>
        <mxCell id="s5ZnHEbZAF1jLoiQEf9y-5" value="SLB" style="ellipse;shape=cloud;whiteSpace=wrap;html=1;" vertex="1" parent="1">
          <mxGeometry x="1290" y="690" width="120" height="80" as="geometry" />
        </mxCell>
        <mxCell id="s5ZnHEbZAF1jLoiQEf9y-11" value="" style="group" vertex="1" connectable="0" parent="1">
          <mxGeometry x="1520" y="670" width="260" height="130" as="geometry" />
        </mxCell>
        <mxCell id="s5ZnHEbZAF1jLoiQEf9y-7" value="" style="rounded=0;whiteSpace=wrap;html=1;" vertex="1" parent="s5ZnHEbZAF1jLoiQEf9y-11">
          <mxGeometry width="260" height="130" as="geometry" />
        </mxCell>
        <mxCell id="s5ZnHEbZAF1jLoiQEf9y-9" value="apigateway" style="rounded=1;whiteSpace=wrap;html=1;" vertex="1" parent="s5ZnHEbZAF1jLoiQEf9y-11">
          <mxGeometry x="13" y="35" width="110" height="60" as="geometry" />
        </mxCell>
        <mxCell id="s5ZnHEbZAF1jLoiQEf9y-10" value="apigateway" style="rounded=1;whiteSpace=wrap;html=1;" vertex="1" parent="s5ZnHEbZAF1jLoiQEf9y-11">
          <mxGeometry x="137" y="35" width="110" height="60" as="geometry" />
        </mxCell>
        <mxCell id="s5ZnHEbZAF1jLoiQEf9y-13" value="" style="endArrow=classic;html=1;rounded=0;strokeColor=#00CC00;" edge="1" parent="1">
          <mxGeometry width="50" height="50" relative="1" as="geometry">
            <mxPoint x="170" y="195" as="sourcePoint" />
            <mxPoint x="270" y="175" as="targetPoint" />
          </mxGeometry>
        </mxCell>
        <mxCell id="s5ZnHEbZAF1jLoiQEf9y-14" value="" style="endArrow=classic;html=1;rounded=0;strokeColor=#FF3333;" edge="1" parent="1" source="s5ZnHEbZAF1jLoiQEf9y-17">
          <mxGeometry width="50" height="50" relative="1" as="geometry">
            <mxPoint x="170" y="210" as="sourcePoint" />
            <mxPoint x="270" y="220" as="targetPoint" />
          </mxGeometry>
        </mxCell>
        <mxCell id="s5ZnHEbZAF1jLoiQEf9y-15" value="&lt;font color=&quot;#00cc00&quot;&gt;GM请求&lt;/font&gt;" style="text;html=1;align=center;verticalAlign=middle;resizable=0;points=[];autosize=1;strokeColor=none;fillColor=none;" vertex="1" parent="1">
          <mxGeometry x="182" y="160" width="70" height="30" as="geometry" />
        </mxCell>
        <mxCell id="s5ZnHEbZAF1jLoiQEf9y-16" value="&lt;font color=&quot;#ff3333&quot;&gt;非GM请求&lt;/font&gt;" style="text;html=1;align=center;verticalAlign=middle;resizable=0;points=[];autosize=1;strokeColor=none;fillColor=none;" vertex="1" parent="1">
          <mxGeometry x="182" y="225" width="80" height="30" as="geometry" />
        </mxCell>
        <mxCell id="s5ZnHEbZAF1jLoiQEf9y-18" value="" style="endArrow=classic;html=1;rounded=0;strokeColor=#FF3333;" edge="1" parent="1" target="s5ZnHEbZAF1jLoiQEf9y-17">
          <mxGeometry width="50" height="50" relative="1" as="geometry">
            <mxPoint x="170" y="210" as="sourcePoint" />
            <mxPoint x="270" y="220" as="targetPoint" />
          </mxGeometry>
        </mxCell>
        <mxCell id="s5ZnHEbZAF1jLoiQEf9y-17" value="" style="verticalLabelPosition=bottom;verticalAlign=top;html=1;shape=mxgraph.basic.x;fillColor=#f8cecc;strokeColor=#b85450;" vertex="1" parent="1">
          <mxGeometry x="212" y="205" width="20" height="20" as="geometry" />
        </mxCell>
        <mxCell id="s5ZnHEbZAF1jLoiQEf9y-20" value="" style="group" vertex="1" connectable="0" parent="1">
          <mxGeometry x="550" y="200" width="260" height="130" as="geometry" />
        </mxCell>
        <mxCell id="s5ZnHEbZAF1jLoiQEf9y-21" value="" style="rounded=0;whiteSpace=wrap;html=1;" vertex="1" parent="s5ZnHEbZAF1jLoiQEf9y-20">
          <mxGeometry width="260" height="130" as="geometry" />
        </mxCell>
        <mxCell id="s5ZnHEbZAF1jLoiQEf9y-22" value="apigateway" style="rounded=1;whiteSpace=wrap;html=1;" vertex="1" parent="s5ZnHEbZAF1jLoiQEf9y-20">
          <mxGeometry x="13" y="35" width="110" height="60" as="geometry" />
        </mxCell>
        <mxCell id="s5ZnHEbZAF1jLoiQEf9y-23" value="apigateway" style="rounded=1;whiteSpace=wrap;html=1;" vertex="1" parent="s5ZnHEbZAF1jLoiQEf9y-20">
          <mxGeometry x="137" y="35" width="110" height="60" as="geometry" />
        </mxCell>
        <mxCell id="s5ZnHEbZAF1jLoiQEf9y-24" value="" style="endArrow=classic;html=1;rounded=0;fillColor=#d5e8d4;strokeColor=#82b366;" edge="1" parent="1">
          <mxGeometry width="50" height="50" relative="1" as="geometry">
            <mxPoint x="410" y="190" as="sourcePoint" />
            <mxPoint x="520" y="250" as="targetPoint" />
          </mxGeometry>
        </mxCell>
        <mxCell id="s5ZnHEbZAF1jLoiQEf9y-25" value="委托SLB做URL路径隔离" style="text;html=1;align=center;verticalAlign=middle;resizable=0;points=[];autosize=1;strokeColor=none;fillColor=none;" vertex="1" parent="1">
          <mxGeometry x="280" y="450" width="150" height="30" as="geometry" />
        </mxCell>
        <mxCell id="s5ZnHEbZAF1jLoiQEf9y-26" value="SLB放行" style="text;html=1;align=center;verticalAlign=middle;resizable=0;points=[];autosize=1;strokeColor=none;fillColor=none;" vertex="1" parent="1">
          <mxGeometry x="410" y="205" width="70" height="30" as="geometry" />
        </mxCell>
        <mxCell id="s5ZnHEbZAF1jLoiQEf9y-28" value="非GM-SLB" style="ellipse;shape=cloud;whiteSpace=wrap;html=1;" vertex="1" parent="1">
          <mxGeometry x="280" y="320" width="120" height="80" as="geometry" />
        </mxCell>
        <mxCell id="s5ZnHEbZAF1jLoiQEf9y-29" value="" style="shape=actor;whiteSpace=wrap;html=1;" vertex="1" parent="1">
          <mxGeometry x="90" y="345" width="40" height="50" as="geometry" />
        </mxCell>
        <mxCell id="s5ZnHEbZAF1jLoiQEf9y-30" value="" style="endArrow=classic;html=1;rounded=0;strokeColor=#00CC00;" edge="1" parent="1">
          <mxGeometry width="50" height="50" relative="1" as="geometry">
            <mxPoint x="170" y="365" as="sourcePoint" />
            <mxPoint x="270" y="345" as="targetPoint" />
          </mxGeometry>
        </mxCell>
        <mxCell id="s5ZnHEbZAF1jLoiQEf9y-31" value="" style="endArrow=classic;html=1;rounded=0;strokeColor=#FF3333;" edge="1" parent="1" source="s5ZnHEbZAF1jLoiQEf9y-35">
          <mxGeometry width="50" height="50" relative="1" as="geometry">
            <mxPoint x="170" y="380" as="sourcePoint" />
            <mxPoint x="270" y="390" as="targetPoint" />
          </mxGeometry>
        </mxCell>
        <mxCell id="s5ZnHEbZAF1jLoiQEf9y-32" value="&lt;font color=&quot;#00cc00&quot;&gt;非GM请求&lt;/font&gt;" style="text;html=1;align=center;verticalAlign=middle;resizable=0;points=[];autosize=1;strokeColor=none;fillColor=none;" vertex="1" parent="1">
          <mxGeometry x="177" y="330" width="80" height="30" as="geometry" />
        </mxCell>
        <mxCell id="s5ZnHEbZAF1jLoiQEf9y-33" value="&lt;font color=&quot;#ff3333&quot;&gt;GM请求&lt;/font&gt;" style="text;html=1;align=center;verticalAlign=middle;resizable=0;points=[];autosize=1;strokeColor=none;fillColor=none;" vertex="1" parent="1">
          <mxGeometry x="187" y="395" width="70" height="30" as="geometry" />
        </mxCell>
        <mxCell id="s5ZnHEbZAF1jLoiQEf9y-34" value="" style="endArrow=classic;html=1;rounded=0;strokeColor=#FF3333;" edge="1" parent="1" target="s5ZnHEbZAF1jLoiQEf9y-35">
          <mxGeometry width="50" height="50" relative="1" as="geometry">
            <mxPoint x="170" y="380" as="sourcePoint" />
            <mxPoint x="270" y="390" as="targetPoint" />
          </mxGeometry>
        </mxCell>
        <mxCell id="s5ZnHEbZAF1jLoiQEf9y-35" value="" style="verticalLabelPosition=bottom;verticalAlign=top;html=1;shape=mxgraph.basic.x;fillColor=#f8cecc;strokeColor=#b85450;" vertex="1" parent="1">
          <mxGeometry x="212" y="375" width="20" height="20" as="geometry" />
        </mxCell>
        <mxCell id="s5ZnHEbZAF1jLoiQEf9y-40" value="" style="endArrow=classic;html=1;rounded=0;fillColor=#d5e8d4;strokeColor=#82b366;" edge="1" parent="1">
          <mxGeometry width="50" height="50" relative="1" as="geometry">
            <mxPoint x="410" y="360" as="sourcePoint" />
            <mxPoint x="520" y="280" as="targetPoint" />
          </mxGeometry>
        </mxCell>
        <mxCell id="s5ZnHEbZAF1jLoiQEf9y-41" value="SLB放行" style="text;html=1;align=center;verticalAlign=middle;resizable=0;points=[];autosize=1;strokeColor=none;fillColor=none;" vertex="1" parent="1">
          <mxGeometry x="412" y="300" width="70" height="30" as="geometry" />
        </mxCell>
        <mxCell id="s5ZnHEbZAF1jLoiQEf9y-42" value="SLB-1" style="ellipse;shape=cloud;whiteSpace=wrap;html=1;" vertex="1" parent="1">
          <mxGeometry x="280" y="560" width="120" height="80" as="geometry" />
        </mxCell>
        <mxCell id="s5ZnHEbZAF1jLoiQEf9y-43" value="" style="group" vertex="1" connectable="0" parent="1">
          <mxGeometry x="570" y="550" width="267" height="150" as="geometry" />
        </mxCell>
        <mxCell id="s5ZnHEbZAF1jLoiQEf9y-44" value="" style="rounded=0;whiteSpace=wrap;html=1;" vertex="1" parent="s5ZnHEbZAF1jLoiQEf9y-43">
          <mxGeometry width="260" height="130" as="geometry" />
        </mxCell>
        <mxCell id="s5ZnHEbZAF1jLoiQEf9y-45" value="GM&lt;br&gt;apigateway" style="rounded=1;whiteSpace=wrap;html=1;" vertex="1" parent="s5ZnHEbZAF1jLoiQEf9y-43">
          <mxGeometry x="13" y="35" width="110" height="60" as="geometry" />
        </mxCell>
        <mxCell id="s5ZnHEbZAF1jLoiQEf9y-46" value="GM&lt;br&gt;apigateway" style="rounded=1;whiteSpace=wrap;html=1;" vertex="1" parent="s5ZnHEbZAF1jLoiQEf9y-43">
          <mxGeometry x="137" y="35" width="110" height="60" as="geometry" />
        </mxCell>
        <mxCell id="s5ZnHEbZAF1jLoiQEf9y-63" value="" style="verticalLabelPosition=bottom;verticalAlign=top;html=1;shape=mxgraph.basic.arc;startAngle=0.3;endAngle=0.1;strokeColor=#FF3333;" vertex="1" parent="s5ZnHEbZAF1jLoiQEf9y-43">
          <mxGeometry x="105" y="100" width="50" height="50" as="geometry" />
        </mxCell>
        <mxCell id="s5ZnHEbZAF1jLoiQEf9y-64" value="" style="verticalLabelPosition=bottom;verticalAlign=top;html=1;shape=mxgraph.basic.x;fillColor=#FF3333;" vertex="1" parent="s5ZnHEbZAF1jLoiQEf9y-43">
          <mxGeometry x="117" y="112" width="25" height="30" as="geometry" />
        </mxCell>
        <mxCell id="s5ZnHEbZAF1jLoiQEf9y-66" value="非GM请求拒绝相应" style="text;html=1;align=center;verticalAlign=middle;resizable=0;points=[];autosize=1;strokeColor=none;fillColor=none;fontColor=#FF3333;" vertex="1" parent="s5ZnHEbZAF1jLoiQEf9y-43">
          <mxGeometry x="137" y="110" width="130" height="30" as="geometry" />
        </mxCell>
        <mxCell id="s5ZnHEbZAF1jLoiQEf9y-68" value="" style="verticalLabelPosition=bottom;verticalAlign=top;html=1;shape=mxgraph.basic.arc;startAngle=0.3;endAngle=0.1;strokeColor=#00CC00;fontColor=#00CC00;" vertex="1" parent="s5ZnHEbZAF1jLoiQEf9y-43">
          <mxGeometry x="100" y="-30" width="50" height="50" as="geometry" />
        </mxCell>
        <mxCell id="s5ZnHEbZAF1jLoiQEf9y-69" value="GM请求可以相应" style="text;html=1;align=center;verticalAlign=middle;resizable=0;points=[];autosize=1;strokeColor=none;fillColor=none;fontColor=#00CC00;" vertex="1" parent="s5ZnHEbZAF1jLoiQEf9y-43">
          <mxGeometry x="105" y="-30" width="110" height="30" as="geometry" />
        </mxCell>
        <mxCell id="s5ZnHEbZAF1jLoiQEf9y-52" value="" style="shape=actor;whiteSpace=wrap;html=1;" vertex="1" parent="1">
          <mxGeometry x="100" y="585" width="40" height="50" as="geometry" />
        </mxCell>
        <mxCell id="s5ZnHEbZAF1jLoiQEf9y-54" value="" style="endArrow=classic;html=1;rounded=0;" edge="1" parent="1">
          <mxGeometry width="50" height="50" relative="1" as="geometry">
            <mxPoint x="180" y="600" as="sourcePoint" />
            <mxPoint x="260" y="580" as="targetPoint" />
          </mxGeometry>
        </mxCell>
        <mxCell id="s5ZnHEbZAF1jLoiQEf9y-55" value="" style="endArrow=none;dashed=1;html=1;dashPattern=1 3;strokeWidth=2;rounded=0;" edge="1" parent="1">
          <mxGeometry width="50" height="50" relative="1" as="geometry">
            <mxPoint x="70" y="710" as="sourcePoint" />
            <mxPoint x="880" y="710" as="targetPoint" />
          </mxGeometry>
        </mxCell>
        <mxCell id="s5ZnHEbZAF1jLoiQEf9y-56" value="GM请求" style="text;html=1;align=center;verticalAlign=middle;resizable=0;points=[];autosize=1;strokeColor=none;fillColor=none;" vertex="1" parent="1">
          <mxGeometry x="177" y="560" width="70" height="30" as="geometry" />
        </mxCell>
        <mxCell id="s5ZnHEbZAF1jLoiQEf9y-57" value="" style="endArrow=classic;html=1;rounded=0;" edge="1" parent="1">
          <mxGeometry width="50" height="50" relative="1" as="geometry">
            <mxPoint x="181" y="610" as="sourcePoint" />
            <mxPoint x="260" y="630" as="targetPoint" />
          </mxGeometry>
        </mxCell>
        <mxCell id="s5ZnHEbZAF1jLoiQEf9y-58" value="非GM请求" style="text;html=1;align=center;verticalAlign=middle;resizable=0;points=[];autosize=1;strokeColor=none;fillColor=none;" vertex="1" parent="1">
          <mxGeometry x="177" y="620" width="80" height="30" as="geometry" />
        </mxCell>
        <mxCell id="s5ZnHEbZAF1jLoiQEf9y-59" value="" style="endArrow=classic;html=1;rounded=0;" edge="1" parent="1">
          <mxGeometry width="50" height="50" relative="1" as="geometry">
            <mxPoint x="412" y="580" as="sourcePoint" />
            <mxPoint x="530" y="600" as="targetPoint" />
          </mxGeometry>
        </mxCell>
        <mxCell id="s5ZnHEbZAF1jLoiQEf9y-60" value="GM请求" style="text;html=1;align=center;verticalAlign=middle;resizable=0;points=[];autosize=1;strokeColor=none;fillColor=none;" vertex="1" parent="1">
          <mxGeometry x="450" y="560" width="70" height="30" as="geometry" />
        </mxCell>
        <mxCell id="s5ZnHEbZAF1jLoiQEf9y-61" value="" style="endArrow=classic;html=1;rounded=0;" edge="1" parent="1">
          <mxGeometry width="50" height="50" relative="1" as="geometry">
            <mxPoint x="410" y="635" as="sourcePoint" />
            <mxPoint x="530" y="615" as="targetPoint" />
          </mxGeometry>
        </mxCell>
        <mxCell id="s5ZnHEbZAF1jLoiQEf9y-62" value="非GM请求" style="text;html=1;align=center;verticalAlign=middle;resizable=0;points=[];autosize=1;strokeColor=none;fillColor=none;" vertex="1" parent="1">
          <mxGeometry x="445" y="620" width="80" height="30" as="geometry" />
        </mxCell>
        <mxCell id="s5ZnHEbZAF1jLoiQEf9y-70" value="SLB-2" style="ellipse;shape=cloud;whiteSpace=wrap;html=1;" vertex="1" parent="1">
          <mxGeometry x="280" y="750" width="120" height="80" as="geometry" />
        </mxCell>
        <mxCell id="s5ZnHEbZAF1jLoiQEf9y-71" value="" style="shape=actor;whiteSpace=wrap;html=1;" vertex="1" parent="1">
          <mxGeometry x="100" y="775" width="40" height="50" as="geometry" />
        </mxCell>
        <mxCell id="s5ZnHEbZAF1jLoiQEf9y-72" value="" style="endArrow=classic;html=1;rounded=0;" edge="1" parent="1">
          <mxGeometry width="50" height="50" relative="1" as="geometry">
            <mxPoint x="180" y="790" as="sourcePoint" />
            <mxPoint x="260" y="770" as="targetPoint" />
          </mxGeometry>
        </mxCell>
        <mxCell id="s5ZnHEbZAF1jLoiQEf9y-73" value="GM请求" style="text;html=1;align=center;verticalAlign=middle;resizable=0;points=[];autosize=1;strokeColor=none;fillColor=none;" vertex="1" parent="1">
          <mxGeometry x="177" y="750" width="70" height="30" as="geometry" />
        </mxCell>
        <mxCell id="s5ZnHEbZAF1jLoiQEf9y-74" value="" style="endArrow=classic;html=1;rounded=0;" edge="1" parent="1">
          <mxGeometry width="50" height="50" relative="1" as="geometry">
            <mxPoint x="181" y="800" as="sourcePoint" />
            <mxPoint x="260" y="820" as="targetPoint" />
          </mxGeometry>
        </mxCell>
        <mxCell id="s5ZnHEbZAF1jLoiQEf9y-75" value="非GM请求" style="text;html=1;align=center;verticalAlign=middle;resizable=0;points=[];autosize=1;strokeColor=none;fillColor=none;" vertex="1" parent="1">
          <mxGeometry x="177" y="810" width="80" height="30" as="geometry" />
        </mxCell>
        <mxCell id="s5ZnHEbZAF1jLoiQEf9y-76" value="" style="endArrow=classic;html=1;rounded=0;" edge="1" parent="1">
          <mxGeometry width="50" height="50" relative="1" as="geometry">
            <mxPoint x="412" y="770" as="sourcePoint" />
            <mxPoint x="530" y="790" as="targetPoint" />
          </mxGeometry>
        </mxCell>
        <mxCell id="s5ZnHEbZAF1jLoiQEf9y-77" value="GM请求" style="text;html=1;align=center;verticalAlign=middle;resizable=0;points=[];autosize=1;strokeColor=none;fillColor=none;" vertex="1" parent="1">
          <mxGeometry x="450" y="750" width="70" height="30" as="geometry" />
        </mxCell>
        <mxCell id="s5ZnHEbZAF1jLoiQEf9y-78" value="" style="endArrow=classic;html=1;rounded=0;" edge="1" parent="1">
          <mxGeometry width="50" height="50" relative="1" as="geometry">
            <mxPoint x="410" y="825" as="sourcePoint" />
            <mxPoint x="530" y="805" as="targetPoint" />
          </mxGeometry>
        </mxCell>
        <mxCell id="s5ZnHEbZAF1jLoiQEf9y-79" value="非GM请求" style="text;html=1;align=center;verticalAlign=middle;resizable=0;points=[];autosize=1;strokeColor=none;fillColor=none;" vertex="1" parent="1">
          <mxGeometry x="445" y="810" width="80" height="30" as="geometry" />
        </mxCell>
        <mxCell id="s5ZnHEbZAF1jLoiQEf9y-80" value="" style="group" vertex="1" connectable="0" parent="1">
          <mxGeometry x="570" y="740" width="267" height="150" as="geometry" />
        </mxCell>
        <mxCell id="s5ZnHEbZAF1jLoiQEf9y-81" value="" style="rounded=0;whiteSpace=wrap;html=1;" vertex="1" parent="s5ZnHEbZAF1jLoiQEf9y-80">
          <mxGeometry width="260" height="130" as="geometry" />
        </mxCell>
        <mxCell id="s5ZnHEbZAF1jLoiQEf9y-82" value="非GM&lt;br&gt;apigateway" style="rounded=1;whiteSpace=wrap;html=1;" vertex="1" parent="s5ZnHEbZAF1jLoiQEf9y-80">
          <mxGeometry x="13" y="35" width="110" height="60" as="geometry" />
        </mxCell>
        <mxCell id="s5ZnHEbZAF1jLoiQEf9y-83" value="非GM&lt;br&gt;apigateway" style="rounded=1;whiteSpace=wrap;html=1;" vertex="1" parent="s5ZnHEbZAF1jLoiQEf9y-80">
          <mxGeometry x="137" y="35" width="110" height="60" as="geometry" />
        </mxCell>
        <mxCell id="s5ZnHEbZAF1jLoiQEf9y-84" value="" style="verticalLabelPosition=bottom;verticalAlign=top;html=1;shape=mxgraph.basic.arc;startAngle=0.3;endAngle=0.1;strokeColor=#FF3333;" vertex="1" parent="s5ZnHEbZAF1jLoiQEf9y-80">
          <mxGeometry x="105" y="100" width="50" height="50" as="geometry" />
        </mxCell>
        <mxCell id="s5ZnHEbZAF1jLoiQEf9y-85" value="" style="verticalLabelPosition=bottom;verticalAlign=top;html=1;shape=mxgraph.basic.x;fillColor=#FF3333;" vertex="1" parent="s5ZnHEbZAF1jLoiQEf9y-80">
          <mxGeometry x="117" y="112" width="25" height="30" as="geometry" />
        </mxCell>
        <mxCell id="s5ZnHEbZAF1jLoiQEf9y-86" value="GM请求拒绝相应" style="text;html=1;align=center;verticalAlign=middle;resizable=0;points=[];autosize=1;strokeColor=none;fillColor=none;fontColor=#FF3333;" vertex="1" parent="s5ZnHEbZAF1jLoiQEf9y-80">
          <mxGeometry x="147" y="110" width="110" height="30" as="geometry" />
        </mxCell>
        <mxCell id="s5ZnHEbZAF1jLoiQEf9y-87" value="" style="verticalLabelPosition=bottom;verticalAlign=top;html=1;shape=mxgraph.basic.arc;startAngle=0.3;endAngle=0.1;strokeColor=#00CC00;fontColor=#00CC00;" vertex="1" parent="s5ZnHEbZAF1jLoiQEf9y-80">
          <mxGeometry x="100" y="-22" width="50" height="50" as="geometry" />
        </mxCell>
        <mxCell id="s5ZnHEbZAF1jLoiQEf9y-88" value="&amp;nbsp; &amp;nbsp; &amp;nbsp; &amp;nbsp; &amp;nbsp; &amp;nbsp;非GM请求可以相应" style="text;html=1;align=center;verticalAlign=middle;resizable=0;points=[];autosize=1;strokeColor=none;fillColor=none;fontColor=#00CC00;" vertex="1" parent="s5ZnHEbZAF1jLoiQEf9y-80">
          <mxGeometry x="90" y="-21" width="160" height="30" as="geometry" />
        </mxCell>
        <mxCell id="s5ZnHEbZAF1jLoiQEf9y-89" value="改造ApiGateWay做URL路径隔离" style="text;html=1;align=center;verticalAlign=middle;resizable=0;points=[];autosize=1;strokeColor=none;fillColor=none;" vertex="1" parent="1">
          <mxGeometry x="350" y="910" width="200" height="30" as="geometry" />
        </mxCell>
      </root>
    </mxGraphModel>
  </diagram>
</mxfile>
